<svg xmlns="http://www.w3.org/2000/svg" xmlns:xlink="http://www.w3.org/1999/xlink" width="209" height="56" viewBox="0 0 209 56">
    <defs>
        <path id="u198f7vf0a" d="M0.725 0L208.144 0 208.144 55.929 0.725 55.929z"/>
    </defs>
    <g fill="none" fill-rule="evenodd">
        <g>
            <g>
                <g>
                    <g transform="translate(-108 -5321) translate(0 4539) translate(108 753) translate(0 29)">
                        <mask id="5lgvsj1chb" fill="#fff">
                            <use xlink:href="#u198f7vf0a"/>
                        </mask>
                        <path stroke="#092048" stroke-width="1.512" d="M0.725 55.18L207.428 55.18 207.428 0.756 0.725 0.756z" mask="url(#5lgvsj1chb)"/>
                        <path fill="#092048" d="M200.81 41.332c-1.763 0-3.782-.097-3.943-.097-.16 0-2.18.097-3.14.097-.353 0-.514-.065-.514-.258 0-.095.064-.192.256-.192.289 0 .675-.064.963-.128.64-.128.8-.833.93-1.763.159-1.346.159-3.878.159-6.956v-5.642c0-5.002 0-5.899-.064-6.924-.064-1.09-.384-1.635-1.089-1.796-.353-.096-.77-.127-.994-.127-.129 0-.258-.065-.258-.192 0-.194.161-.258.514-.258 1.057 0 3.078.097 3.237.097.16 0 2.18-.097 3.142-.097.353 0 .513.064.513.258 0 .127-.13.192-.257.192-.225 0-.416.03-.8.095-.866.16-1.124.707-1.188 1.828-.064 1.025-.064 1.922-.064 6.924v5.642c0 3.078 0 5.61.161 6.956.097.93.289 1.635 1.25 1.763.449.064 1.154.128 1.443.128.192 0 .256.097.256.192 0 .161-.16.258-.512.258zm-13.498-1.058c-.257.864-.738.961-2.085.961h-12.15c-.223 0-.448-.192-.448-.45 0-.255.32-.543.577-.768 6.411-5.706 11.188-10.13 11.188-16.286 0-4.583-2.948-5.93-5.097-5.93-1.538 0-2.501.353-3.43 1.219-.77.738-1.122 1.86-1.122 3.11 0 .288-.128.48-.288.48-.129 0-.226-.128-.257-.416-.032-.29-.192-2.95-.192-3.944 0-.192.031-.288.32-.48 1.185-.546 3.045-1.122 5.642-1.122 4.84 0 7.246 3.077 7.246 6.475 0 6.635-7.182 12.566-11.156 15.963-.161.13-.097.225.064.225h2.34c.544 0 4.328-.031 5.48-.16 2.341-.224 3.368-1.378 3.75-3.077.098-.353.193-.481.386-.481.16 0 .193.289.193.48 0 .61-.642 3.11-.961 4.201zm-18.503-.16c-.192.608-.256.672-.834.929-1.282.512-3.718.737-5.769.737-4.809 0-8.047-1.186-10.58-3.462-3.109-2.789-3.877-6.444-3.877-9.49 0-2.146.737-5.897 3.59-8.75 1.923-1.924 4.84-3.43 9.776-3.43 1.283 0 3.078.096 4.65.384 1.217.225 2.243.417 3.269.481.352.033.416.16.416.352 0 .258-.095.642-.16 1.796-.064 1.058-.064 2.82-.096 3.301-.032.481-.097.674-.289.674-.224 0-.255-.224-.255-.674 0-1.25-.514-2.563-1.347-3.269-1.123-.962-3.59-1.828-6.412-1.828-4.264 0-6.25 1.252-7.373 2.34-2.339 2.246-2.885 5.097-2.885 8.368 0 6.122 4.713 11.733 11.573 11.733 2.404 0 4.295-.289 5.577-1.604.673-.704 1.09-2.114 1.187-2.692.064-.353.127-.48.32-.48.16 0 .225.222.225.48 0 .225-.384 3.013-.706 4.104zm-28.168 15.815h67.503V-.015h-67.503v55.944zM11.264 11.71h6.923v22.42l.412.658h5.852l.496-.576v-5.44l-.66-.577h-4.285v-6.842h9.478s1.812.248 2.472 2.39c.073.237 0 15.578 0 15.578s-.534 1.323-2.432 2.268c-.081.04-15.824.04-15.824.04s-2.35-.455-2.35-2.308l-.082-27.611M55.442 11.792L62.2 11.792 62.2 21.271 65.91 21.271 65.91 28.03 62.365 28.03 62.365 41.629 55.36 41.629zM67.476 11.621L74.668 11.621 74.668 18.642 67.476 18.642 67.476 11.536M67.528 21.333L74.709 21.333 74.709 41.609 67.558 41.609zM83.26 28.978v12.569H76.4V23.682s.309-1.36 2.225-2.349h13.105l.804.742.865-.742h13.105s1.313.612 2.225 1.978c.042.062 0 18.298 0 18.298h-6.427V28.875s-.289-.557-.701-.598c-.138-.014-4.987-.041-4.987-.041s-.66.33-.66.7c0 .371.042 12.673.042 12.673h-6.738V28.936s-.31-.66-.762-.7c-.062-.006-4.555-.042-4.555-.042s-.72.577-.68.784M46.232 34.83h-5.399s-.598-.763.021-1.525h6.099s-.157.963-.721 1.525m5.09-13.56H33.353v6.76h13.517v2.143h-11.54s-1.73.989-1.73 1.978v7.253s.989 2.06 2.225 2.143c1.001.067 15.744 0 15.744 0s2.224-1.236 2.224-2.226v-15.66s-.66-2.143-2.473-2.39M123.71 34.866h-5.4s-.597-.763.022-1.525h6.098s-.158.963-.72 1.525m5.089-13.559H110.83v6.759h13.518v2.143h-11.54s-1.73.989-1.73 1.978v7.253s.988 2.06 2.225 2.144c1 .066 15.742 0 15.742 0s2.226-1.237 2.226-2.227v-15.66s-.66-2.143-2.473-2.39" mask="url(#5lgvsj1chb)"/>
                    </g>
                </g>
            </g>
        </g>
    </g>
</svg>
