<svg xmlns="http://www.w3.org/2000/svg" width="127" height="55" viewBox="0 0 127 55">
    <g fill="none" fill-rule="evenodd">
        <g>
            <g>
                <path fill="#002561" fill-rule="nonzero" d="M41.321 39.682L73.361 10.671 105.401 39.682 81.336 39.682 81.336 31.04 79.864 31.04 79.864 39.682 79.169 39.682 79.169 27.955 77.696 27.955 77.696 39.682 77.029 39.682 77.029 23.926 75.529 23.926 75.529 39.682 74.862 39.682 74.862 19.174 73.361 19.174 73.361 39.682M11.532 49.24c-.917-.777-1.167-1.778-1.167-2.64 0-.61.195-1.666 1.084-2.472.667-.584 1.556-.945 2.945-.945.584 0 .945.056 1.362.083.361.056.667.112.917.14.111 0 .139.055.139.11 0 .084-.028.167-.056.5-.027.306-.027.806-.027.973 0 .14-.056.223-.14.223-.083 0-.083-.084-.083-.195 0-.278-.139-.611-.361-.834-.306-.305-.945-.528-1.806-.528-.806 0-1.334.14-1.75.5-.696.584-.862 1.446-.862 2.335 0 2.14 1.64 3.14 2.89 3.14.833 0 1.278-.056 1.64-.473.166-.194.277-.444.305-.61.028-.14.055-.168.111-.168s.111.084.111.167c0 .111-.111.89-.194 1.195-.056.167-.084.195-.25.278-.362.139-1.084.194-1.668.194-1.222 0-2.306-.25-3.14-.972M17.812 46.712c0-1.528 1.084-3.529 3.89-3.529 2.335 0 3.808 1.306 3.808 3.362 0 2.057-1.5 3.668-3.89 3.668-2.724 0-3.808-1.917-3.808-3.5zm6.308.167c0-1.973-1.195-3.224-2.695-3.224-1.028 0-2.251.556-2.251 2.78 0 1.861 1.056 3.306 2.807 3.306.666 0 2.14-.306 2.14-2.862zM33.568 50.102c-.222 0-.278-.055-.278-.11 0-.056.056-.084.112-.112.055-.028.083-.139.055-.39l-.528-3.917h-.028l-2 4.001c-.223.417-.25.5-.362.5-.11 0-.222-.166-.36-.444-.223-.417-.974-1.779-1.057-2.029-.083-.166-.611-1.306-.917-1.917h-.028l-.5 3.501c-.028.167-.028.278-.028.417 0 .167.14.222.278.25.167.028.25.056.334.056.083 0 .139.055.139.083 0 .083-.084.111-.223.111-.389 0-.806-.028-.972-.028-.167 0-.612.028-.917.028-.084 0-.167-.028-.167-.11 0-.056.056-.084.139-.084.083 0 .139 0 .278-.028.25-.028.333-.39.389-.695l.917-5.863c.028-.139.111-.222.167-.222.083 0 .166.055.277.278l2.501 5.001 2.501-5.057c.084-.139.167-.222.25-.222.084 0 .167.083.223.278l.833 5.53c.084.555.167.805.445.889.25.083.417.083.528.083.083 0 .139.028.139.083 0 .084-.111.111-.25.111M37.264 45.906v-1.89c-.028-.305-.111-.388-.389-.472-.083-.028-.222-.028-.361-.028-.084 0-.167-.027-.167-.083 0-.055.083-.083.222-.083.473 0 1.084.028 1.334.028.39 0 1.112-.028 1.529-.028 1.167 0 1.584.389 1.722.5.195.194.473.583.473 1.084 0 1.278-1.028 2.167-2.334 2.167h-.278c-.056 0-.111-.028-.111-.083 0-.084.11-.111.305-.111.528 0 1.25-.528 1.25-1.445 0-.306-.027-.89-.555-1.334-.333-.306-.723-.334-.917-.334-.139 0-.306 0-.39.056-.055.028-.082.083-.082.167v3.557c0 .833 0 1.528.055 1.917.028.25.083.417.361.472.14.028.334.028.473.028.11 0 .139.056.139.083 0 .056-.084.084-.167.084-.611 0-1.278-.028-1.528-.028-.223 0-.806.028-1.167.028-.112 0-.167-.028-.167-.084 0-.055.028-.083.139-.083.139 0 .25 0 .333-.028.195-.055.25-.222.278-.472.056-.39.056-1.084.056-1.917M44.822 43.878l-1.389.027c-.528 0-.75.084-.89.278-.083.14-.138.25-.166.306-.028.083-.055.111-.111.111s-.083-.055-.083-.139c0-.139.166-1 .194-1.083.028-.112.056-.167.111-.167.084 0 .167.083.39.11.277.029.61.057.916.057h3.78c.305 0 .5-.028.639-.056s.222-.056.25-.056c.055 0 .083.056.083.195 0 .194-.028.861-.028 1.084 0 .083-.027.139-.083.139-.083 0-.083-.056-.111-.195v-.083c-.028-.223-.25-.5-1.112-.528l-1.167-.028v3.64c0 .834 0 1.529.056 1.918.028.25.083.416.361.472.139.028.333.028.472.028.112 0 .14.055.14.083 0 .056-.084.083-.167.083-.612 0-1.223-.027-1.501-.027-.222 0-.834.027-1.223.027-.11 0-.166-.027-.166-.083 0-.055.027-.083.139-.083.139 0 .25 0 .333-.028.195-.056.25-.222.278-.472.055-.39.055-1.084.055-1.918M49.13 46.712c0-1.528 1.083-3.529 3.89-3.529 2.334 0 3.807 1.306 3.807 3.362 0 2.057-1.5 3.668-3.89 3.668-2.724 0-3.807-1.917-3.807-3.5zm6.308.167c0-1.973-1.195-3.224-2.696-3.224-1.028 0-2.25.556-2.25 2.78 0 1.861 1.055 3.306 2.806 3.306.667 0 2.14-.306 2.14-2.862zM58.55 45.906v-1.89c-.028-.305-.111-.416-.306-.472-.11-.028-.222-.055-.333-.055-.084 0-.14-.028-.14-.111 0-.056.084-.084.223-.084.361 0 .973.028 1.25.028.223 0 .834-.028 1.196-.028.11 0 .194.028.194.084 0 .083-.056.11-.139.11-.083 0-.167 0-.278.028-.25.056-.333.167-.361.473-.028.278-.028.528-.028 1.89v1.583c0 .862 0 1.584.056 1.973.028.25.083.39.361.417.139.028.333.028.472.028.112 0 .14.056.14.083 0 .056-.084.084-.167.084-.612 0-1.25-.028-1.501-.028-.222 0-.834.028-1.223.028-.11 0-.166-.028-.166-.084 0-.055.027-.083.139-.083.139 0 .25 0 .333-.028.195-.055.25-.167.278-.444.055-.362.055-1.084.055-1.946M62.857 45.906v-1.89c-.028-.305-.111-.388-.389-.472-.083-.028-.222-.028-.361-.028-.084 0-.167-.027-.167-.083 0-.055.083-.083.222-.083.473 0 1.084.028 1.279.028.305 0 1.167-.028 1.445-.028.583 0 1.278.055 1.778.389.25.166.667.639.667 1.222 0 .667-.389 1.25-1.278 1.973.833 1 1.473 1.834 2.028 2.39.528.528.834.556 1 .584.084.028.14.028.223.028.083 0 .111.055.111.083 0 .083-.055.083-.167.083h-.889c-.528 0-.778-.055-1-.166-.39-.195-.75-.612-1.278-1.334-.362-.5-.75-1.084-.89-1.223-.055-.056-.11-.056-.166-.056l-.834-.027c-.056 0-.083.027-.083.083v.139c0 .834 0 1.528.055 1.917.028.278.084.445.361.473.14.028.334.028.445.028.083 0 .111.055.111.083 0 .055-.083.083-.194.083-.528 0-1.306-.028-1.445-.028-.167 0-.778.028-1.14.028-.11 0-.166-.028-.166-.083 0-.056.027-.083.139-.083.138 0 .25 0 .333-.028.195-.056.25-.223.278-.473.055-.389.055-1.083.055-1.917l-.083-1.612zm1.167.695c0 .083.028.139.084.167.194.055.472.083.694.083.362 0 .5-.028.667-.139.278-.194.612-.583.612-1.334 0-1.278-.862-1.584-1.418-1.584-.222 0-.444 0-.555.028-.056.028-.084.056-.084.14V46.6zM74.222 47.49c0 .862 0 1.584.056 1.945.028.278.056.445.334.473.138.028.333.055.416.055.056 0 .084.056.084.084 0 .055-.056.083-.14.083-.527 0-1.11-.028-1.166-.028-.056 0-.64.028-.917.028-.084 0-.14-.028-.14-.083 0-.028.029-.084.084-.084.083 0 .195-.027.278-.055.167-.056.222-.223.25-.473.056-.36.056-1.083.056-1.945v-1.584c0-1.39 0-1.64-.028-1.945-.028-.306-.084-.445-.306-.472-.111-.028-.222-.028-.278-.028-.055 0-.083-.056-.083-.083 0-.056.056-.084.139-.084.306 0 .89.028.945.028.055 0 .639-.028.917-.028.11 0 .139.028.139.084 0 .027-.028.083-.084.083-.055 0-.139 0-.222.028-.25.055-.306.166-.334.5v1.945M83.476 50.102c-.222 0-.278-.028-.278-.083 0-.028.028-.056.056-.083.055-.028.055-.223.027-.39l-.444-4.529h-.028l-2.25 4.585c-.195.39-.25.472-.334.472-.084 0-.14-.083-.306-.416-.25-.445-.861-1.584-1.084-2.084-.278-.584-1.028-2.085-1.195-2.446h-.055l-.361 4.057v.445c0 .139.083.222.222.25.167.056.306.056.361.056.028 0 .084.027.084.055 0 .056-.056.083-.167.083-.334 0-.778-.027-.862-.027-.083 0-.528.027-.778.027-.083 0-.166-.027-.166-.083 0-.028.055-.055.083-.055.083 0 .139 0 .278-.028.305-.056.305-.39.361-.723l.667-5.863c0-.083.056-.167.111-.167.056 0 .14.028.195.14l2.806 5.585 2.696-5.558c.055-.083.083-.139.139-.139.055 0 .11.083.139.25l.639 5.502c.028.306.083.806.472.917.278.084.5.084.612.084.055 0 .083.027.083.055 0 .056-.083.083-.195.083M93.257 50.102c-.222 0-.277-.028-.277-.083 0-.028.027-.056.055-.083.056-.028.056-.223.028-.39l-.445-4.529h-.027l-2.251 4.585c-.195.39-.25.472-.334.472-.083 0-.139-.083-.305-.416-.25-.445-.862-1.584-1.084-2.084-.278-.584-1.028-2.085-1.195-2.446h-.056l-.36 4.057v.445c0 .139.082.222.221.25.167.056.306.056.362.056.027 0 .083.027.083.055 0 .056-.056.083-.167.083-.333 0-.806-.027-.861-.027-.084 0-.528.027-.778.027-.084 0-.167-.027-.167-.083 0-.028.056-.055.083-.055.084 0 .14 0 .278-.028.306-.056.306-.39.362-.723l.666-5.863c0-.083.056-.167.112-.167.055 0 .139.028.194.14l2.807 5.585 2.695-5.558c.056-.083.084-.139.14-.139.055 0 .11.083.138.25l.64 5.502c.027.306.083.806.472.917.278.084.5.084.611.084.056 0 .083.027.083.055 0 .056-.083.083-.194.083M99.204 43.183c2.084 0 3.668 1.278 3.668 3.362 0 2.001-1.5 3.668-3.723 3.668-2.557 0-3.64-1.917-3.64-3.529 0-1.445 1.11-3.501 3.695-3.501zm.195 6.67c.833 0 2.528-.445 2.528-3.03 0-2.167-1.306-3.279-2.778-3.279-1.557 0-2.668.973-2.668 2.918-.028 2.084 1.25 3.39 2.918 3.39zM104.817 45.906c0-1.39 0-1.64-.027-1.945-.028-.306-.084-.472-.39-.528-.083 0-.222-.028-.305-.028-.028 0-.083-.027-.083-.055 0-.056.055-.084.138-.084.417 0 1.029.028 1.084.028.223 0 .667-.028 1.084-.028 1.556 0 1.945.89 1.945 1.362 0 .695-.472 1.14-.945 1.584.695.222 1.64.861 1.64 1.862 0 1-.75 2-2.334 2-.167 0-.5 0-.806-.027-.306 0-.556-.028-.612-.028h-.389c-.194 0-.416.028-.555.028-.084 0-.14-.028-.14-.084 0-.027.028-.055.084-.055.083 0 .195-.028.278-.028.167-.028.194-.222.25-.5.056-.361.056-1.084.056-1.945l.027-1.529zm.806.195c0 .055.028.083.056.083.055 0 .222.056.583.056.528 0 .723-.028.917-.223.195-.222.362-.528.362-.972 0-.695-.39-1.445-1.306-1.445-.112 0-.334 0-.473.055-.083.028-.111.056-.111.084V46.1h-.028zm0 1v1.918c.028.444.028.528.306.666.25.112.64.14.806.14.611 0 1.361-.223 1.361-1.39 0-.39-.166-1.167-.889-1.64-.305-.194-.611-.194-.833-.222-.112-.028-.584-.028-.723-.028-.028 0-.056.028-.056.056v.5h.028zM111.82 47.49c0 .862 0 1.584.056 1.945.027.278.055.445.333.473.139.028.334.055.417.055.055 0 .083.056.083.084 0 .055-.055.083-.139.083-.528 0-1.111-.028-1.167-.028-.055 0-.639.028-.917.028-.083 0-.139-.028-.139-.083 0-.028.028-.084.084-.084.083 0 .194-.027.278-.055.166-.056.222-.223.25-.473.055-.36.055-1.083.055-1.945v-1.584c0-1.39 0-1.64-.028-1.945-.027-.306-.083-.445-.305-.472-.111-.028-.223-.028-.278-.028-.056 0-.084-.056-.084-.083 0-.056.056-.084.14-.084.305 0 .889.028.944.028.028 0 .64-.028.917-.028.111 0 .14.028.14.084 0 .027-.029.083-.084.083-.056 0-.14 0-.223.028-.25.055-.305.166-.333.5v1.945M115.71 47.518c0 1.306.028 1.862.195 2.029.139.138.5.222 1.25.222.473 0 .89 0 1.112-.278.111-.139.194-.334.222-.5 0-.056.056-.111.084-.111.055 0 .055.055.055.139 0 .11-.055.639-.139.889-.055.222-.083.25-.583.25-.667 0-1.195 0-1.612-.028-.417 0-.75-.028-1-.028h-.39c-.194 0-.388.028-.527.028-.084 0-.14-.028-.14-.083 0-.028.028-.084.084-.084.083 0 .195-.027.278-.055.167-.056.194-.223.25-.473.056-.36.056-1.083.056-1.945v-1.584c0-1.39 0-1.64-.028-1.945-.028-.306-.084-.445-.39-.5-.083 0-.222-.028-.305-.028-.028 0-.083-.055-.083-.083 0-.056.055-.084.139-.084.416 0 1 .028 1.056.028.055 0 .75-.028 1.028-.028.083 0 .139.028.139.084 0 .028-.056.055-.084.055-.055 0-.194 0-.305.028-.278.056-.334.195-.334.5v1.945M121.268 47.49c0 .862 0 1.584.056 1.945.027.278.055.445.333.473.139.028.334.055.417.055.055 0 .083.056.083.084 0 .055-.055.083-.139.083-.528 0-1.111-.028-1.167-.028-.055 0-.639.028-.917.028-.083 0-.139-.028-.139-.083 0-.028.028-.084.084-.084.083 0 .194-.027.278-.055.166-.056.222-.223.25-.473.055-.36.055-1.083.055-1.945v-1.584c0-1.39 0-1.64-.028-1.945-.027-.306-.083-.445-.305-.472-.111-.028-.223-.028-.278-.028-.056 0-.084-.056-.084-.083 0-.056.056-.084.14-.084.305 0 .889.028.944.028.056 0 .64-.028.917-.028.111 0 .14.028.14.084 0 .027-.056.083-.084.083-.056 0-.14 0-.222.028-.25.055-.306.166-.334.5v1.945M124.325 45.906c0-1.39 0-1.64-.028-1.945-.028-.306-.083-.445-.39-.5-.082 0-.221-.028-.305-.028-.028 0-.083-.055-.083-.083 0-.056.055-.084.139-.084.417 0 1.028.028 1.084.028h2.223c.166 0 .36-.055.416-.055.056 0 .084-.056.14-.056.027 0 .055.056.055.083 0 .056-.056.167-.083.417 0 .084-.028.473-.056.584 0 .055-.056.083-.083.083-.056 0-.084-.055-.084-.111s0-.222-.055-.306c-.056-.139-.167-.222-.667-.278-.167-.027-1.223-.027-1.334-.027-.056 0-.056.027-.056.083v2.445c0 .056 0 .084.056.084.111 0 1.334 0 1.556-.028.222-.028.361-.028.445-.139.055-.056.11-.111.139-.111.027 0 .055.028.055.083 0 .056-.055.195-.083.5-.028.167-.056.528-.056.584 0 .083-.027.167-.083.167-.056 0-.056-.028-.056-.084 0-.083 0-.194-.055-.305-.028-.14-.111-.223-.473-.278-.25-.028-1.25-.056-1.417-.056-.055 0-.055.028-.055.056v2.278c.027.612.194.723 1.111.723.25 0 .695 0 .917-.083.25-.112.361-.278.417-.612.028-.111.056-.139.083-.139.056 0 .056.084.056.14 0 .055-.083.666-.139.86-.056.223-.167.223-.528.223-.695 0-1.223-.028-1.612-.028-.389-.028-.639-.028-.778-.028h-.389c-.167 0-.389.028-.528.028-.083 0-.139-.028-.139-.083 0-.028.028-.084.084-.084.083 0 .194-.027.278-.055.166-.028.194-.222.25-.473.055-.36.055-1.083.055-1.945M130.16 45.906c0-1.39 0-1.64-.027-1.945-.028-.306-.084-.445-.39-.5-.083 0-.222-.028-.305-.028-.028 0-.084-.055-.084-.083 0-.056.028-.084.14-.084.416 0 1.055.028 1.11.028.084 0 .89-.028 1.168-.028.584 0 1.25.056 1.723.39.222.166.639.61.639 1.222 0 .667-.278 1.306-1.14 2.056.751.945 1.418 1.751 1.946 2.335.5.5.806.583 1.028.611.167.028.278.028.334.028.055 0 .083.055.083.083 0 .056-.056.083-.222.083h-.584c-.528 0-.75-.055-1-.166-.39-.223-.75-.64-1.279-1.334-.389-.5-.805-1.056-1-1.306-.056-.056-.056-.056-.139-.056l-1.195-.028c-.028 0-.055.028-.055.084v.222c0 .862 0 1.556.055 1.918.028.277.084.444.361.472.14.028.334.056.417.056.056 0 .084.055.084.083 0 .055-.056.083-.14.083-.5 0-1.083-.028-1.139-.028 0 0-.639.028-.917.028-.083 0-.139-.028-.139-.083 0-.028.028-.083.084-.083.083 0 .194-.028.278-.056.166-.056.194-.222.25-.472.055-.362.055-1.084.055-1.946v-1.556zm.806.778c0 .056.028.084.056.111.139.084.611.14 1.028.14.222 0 .472 0 .695-.167.305-.223.555-.695.555-1.362 0-1.111-.611-1.75-1.611-1.75-.278 0-.584.027-.667.055-.056.028-.084.056-.084.111v2.862h.028zM10.365 53.743H136.385V54.743H10.365z" transform="translate(-397 -46) translate(387 36)"/>
                <path d="M146.75 0L0 0 0 61.19 146.75 61.19" transform="translate(-397 -46) translate(387 36)"/>
                <text fill="#969595" font-family="Helvetica" font-size="6.113" transform="translate(-397 -46) translate(387 36)">
                    <tspan x="36.057" y="63.685">RÉGISSEURS DEPUIS 1825</tspan>
                </text>
            </g>
        </g>
    </g>
</svg>
