<?xml version="1.0" encoding="utf-8"?>
<!-- Generator: Adobe Illustrator 18.0.0, SVG Export Plug-In . SVG Version: 6.00 Build 0)  -->
<!DOCTYPE svg PUBLIC "-//W3C//DTD SVG 1.1//EN" "http://www.w3.org/Graphics/SVG/1.1/DTD/svg11.dtd">
<svg version="1.1" id="Layer_1" xmlns="http://www.w3.org/2000/svg" xmlns:xlink="http://www.w3.org/1999/xlink" x="0px" y="0px"
	 width="39.5px" height="27.3px" viewBox="0.2 0.2 39.5 27.3" enable-background="new 0.2 0.2 39.5 27.3" xml:space="preserve">
<g>
	<g>
		<g>
			<path fill="#FFFFFF" d="M16.7,14c-0.2,0-0.3-0.1-0.4-0.2c-0.1-0.2,0-0.5,0.2-0.6l1.4-0.7v-1.6c0-0.3,0.2-0.5,0.5-0.5
				c0.3,0,0.5,0.2,0.5,0.5v1.5l1.4,0.4c0.2,0,0.4,0.3,0.3,0.6c0,0.2-0.3,0.4-0.5,0.4H20l-1.6-0.4L17,14C16.9,14,16.8,14,16.7,14z
				 M13.2,15.9c-0.2,0-0.3-0.1-0.4-0.2c-0.1-0.2,0-0.5,0.2-0.6l1.7-0.9c0.2-0.1,0.5,0,0.6,0.2c0.1,0.2,0,0.5-0.2,0.6l-1.7,0.9
				C13.4,15.9,13.3,15.9,13.2,15.9z M9.5,17.3C9.4,17.2,9.4,17.2,9.5,17.3V3.6c0,0,0-0.1,0-0.1v0c0,0,0-0.1,0.1-0.1c0,0,0,0,0,0
				c0,0,0,0,0.1,0l8.5-3h0.2L25,1.1l1.5,0.2l3.1,0.4L31.5,2h0c0,0,0.1,0,0.1,0c0,0,0,0,0.1,0l0,0c0,0,0.1,0.1,0.1,0.1v0
				c0,0.1,0,0.1,0,0.2v13.7c0,0,0,0,0,0c0,0,0,0.1,0,0.1c0,0,0,0,0,0c0,0,0,0,0,0h0l-8.5,4.5h0H23h-0.1l-13-3.2c0,0-0.1,0-0.1,0l0,0
				c0,0-0.1,0-0.1,0c0,0,0,0,0,0c0,0,0,0,0,0L9.5,17.3C9.5,17.4,9.5,17.3,9.5,17.3L9.5,17.3z M30.9,3.1l-7.5,3v7.4h0l3.1,0.8
				c0.2,0,0.4,0.3,0.3,0.6c0,0.2-0.3,0.4-0.5,0.4h-0.1l-3-0.7v5.1L30,16l-0.6-0.1c-0.2,0-0.4-0.3-0.3-0.6c0-0.2,0.3-0.4,0.5-0.3
				l1.2,0.3V3.1z M17.9,1.3l-6.2,2.2l11.1,1.8l6.7-2.7L20,1.3l-1-0.1l-0.3,0v1.3c0,0.3-0.2,0.5-0.5,0.5s-0.5-0.2-0.5-0.5
				C17.9,2.5,17.9,1.3,17.9,1.3z M10.3,4.2v12.3l1-0.5c0.2-0.1,0.5,0,0.6,0.2c0.1,0.2,0,0.5-0.2,0.6L11.1,17l11.3,2.8V6.2l-3.6-0.6
				v2.5c0,0.3-0.2,0.5-0.5,0.5s-0.5-0.2-0.5-0.5V5.4L10.3,4.2z M33.4,10.1c4.1,1.7,6.4,4,6.4,6.5c0,4.4-7.1,8-16.9,8.7h0
				c-0.2,0-0.5-0.2-0.5-0.4c0-0.3,0.1-0.5,0.4-0.5c9.1-0.6,16-3.9,16-7.7c0-2.1-2.1-4.1-5.8-5.6c-0.3-0.1-0.4-0.4-0.3-0.6
				C32.9,10.1,33.2,10,33.4,10.1z M15.7,22.3l2.6,2.2c0.1,0.1,0.2,0.2,0.2,0.4c0,0.1-0.1,0.3-0.2,0.4l-2.6,2.2c0,0-0.2,0.1-0.3,0.1
				c-0.1,0-0.3-0.1-0.4-0.2c-0.2-0.2-0.1-0.5,0-0.6l1.7-1.4C7.1,24.6,0.2,21,0.2,16.6c0-2.7,2.6-5.2,7.3-6.9C7.8,9.6,8,9.8,8.1,10
				c0.1,0.2,0,0.5-0.3,0.6c-4.3,1.5-6.7,3.7-6.7,6c0,3.8,6.8,7.1,15.5,7.7l-1.6-1.4c-0.2-0.1-0.2-0.5,0-0.6
				C15.2,22.1,15.5,22.1,15.7,22.3z"/>
		</g>
	</g>
</g>
</svg>
