<svg xmlns="http://www.w3.org/2000/svg" xmlns:xlink="http://www.w3.org/1999/xlink" width="23" height="23" viewBox="0 0 23 23">
    <defs>
        <path id="rs52eyiq2a" d="M0.003 0.015L2.858 0.015 2.858 4.779 0.003 4.779z"/>
    </defs>
    <g fill="none" fill-rule="evenodd">
        <g>
            <g>
                <g>
                    <g transform="translate(-866 -5000) translate(0 4539) translate(866 461) translate(0 6.654)">
                        <mask id="31e0vqt0lb" fill="#fff">
                            <use xlink:href="#rs52eyiq2a"/>
                        </mask>
                        <path fill="#5B5B54" d="M2.858.491c0-.263-.213-.476-.476-.476C1.068.015 0 1.084 0 2.397v.953c0 .787.641 1.429 1.43 1.429h.952c.263 0 .476-.214.476-.477s-.213-.476-.476-.476V.968c.263 0 .476-.214.476-.477" mask="url(#31e0vqt0lb)"/>
                    </g>
                    <path fill="#5B5B54" d="M20.484 6.67c-.263 0-.476.213-.476.476s.213.476.476.476v2.858c-.263 0-.476.214-.476.477s.213.476.476.476h.953c.788 0 1.429-.641 1.429-1.43v-.952c0-1.313-1.068-2.382-2.382-2.382M8.098 20.008c-.263 0-.476.213-.476.476H4.764c0-.263-.214-.476-.477-.476s-.476.213-.476.476v.953c0 .788.641 1.429 1.43 1.429h1.905c.788 0 1.429-.641 1.429-1.43v-.952c0-.263-.214-.476-.477-.476M18.579 20.008c-.263 0-.477.213-.477.476h-2.858c0-.263-.213-.476-.476-.476s-.477.213-.477.476v.953c0 .788.641 1.429 1.43 1.429h1.905c.788 0 1.429-.641 1.429-1.43v-.952c0-.263-.213-.476-.476-.476" transform="translate(-866 -5000) translate(0 4539) translate(866 461)"/>
                    <path fill="#38424B" d="M19.055 11.91c0 .787-.641 1.429-1.43 1.429H5.24c-.788 0-1.429-.642-1.429-1.43V7.146c0-.788.641-1.43 1.43-1.43h12.385c.788 0 1.429.642 1.429 1.43v4.763zm-2.382 6.192c-.788 0-1.429-.64-1.429-1.429 0-.788.641-1.429 1.43-1.429.787 0 1.428.641 1.428 1.43 0 .787-.64 1.428-1.429 1.428zm-10.48 0c-.788 0-1.43-.64-1.43-1.429 0-.788.642-1.429 1.43-1.429.788 0 1.429.641 1.429 1.43 0 .787-.641 1.428-1.43 1.428zm0-16.196h10.48c.788 0 1.43.64 1.43 1.429 0 .788-.642 1.429-1.43 1.429H6.193c-.788 0-1.43-.641-1.43-1.43 0-.787.642-1.428 1.43-1.428zM18.579 0H4.287C2.974 0 1.906 1.069 1.906 2.382v16.197c0 1.313 1.068 2.382 2.381 2.382H18.58c1.313 0 2.382-1.07 2.382-2.382V2.382C20.96 1.069 19.892 0 18.579 0z" transform="translate(-866 -5000) translate(0 4539) translate(866 461)"/>
                </g>
            </g>
        </g>
    </g>
</svg>
