<svg xmlns="http://www.w3.org/2000/svg" xmlns:xlink="http://www.w3.org/1999/xlink" width="32" height="23" viewBox="0 0 32 23">
    <defs>
        <path id="dvrlrf2eka" d="M0.06 0.886L31.242 0.886 31.242 22.999 0.06 22.999z"/>
    </defs>
    <g fill="none" fill-rule="evenodd">
        <g>
            <g>
                <g transform="translate(-108 -5000) translate(0 4539) translate(108 461)">
                    <mask id="meyaisbekb" fill="#fff">
                        <use xlink:href="#dvrlrf2eka"/>
                    </mask>
                    <path fill="#38424B" d="M31.066 7.73c-.152-.188-.382-.297-.621-.297h-3.043c-.75-1.977-1.726-3.918-2.836-4.649C20.723.253 10.523.253 6.68 2.784c-1.11.731-2.086 2.672-2.84 4.649H.801c-.242 0-.469.109-.621.297-.153.187-.211.429-.164.668l.453 2.179c.074.371.402.637.781.637h.902c-.871 1.004-1.293 2.27-1.297 3.531-.007 1.563.586 2.973 1.672 3.973.012.008.024.02.035.027V21.8c0 .66.536 1.199 1.2 1.199h2.804c.661 0 1.2-.539 1.2-1.199v-1.227H23.48V21.8c0 .66.536 1.199 1.2 1.199h2.804c.661 0 1.2-.539 1.2-1.199v-2.996c1.148-1.051 1.699-2.5 1.707-3.949.004-1.305-.438-2.617-1.36-3.641h.961c.379 0 .707-.266.785-.637l.45-2.179c.046-.239-.012-.481-.161-.668zM8 4.788c3.062-2.015 12.184-2.015 15.242 0 .598.391 1.363 1.969 2.063 3.903H5.938C6.637 6.757 7.402 5.179 8 4.788zM4.41 15.046c0-1.301 1.059-2.359 2.36-2.359 1.304 0 2.363 1.058 2.363 2.359 0 1.305-1.059 2.363-2.363 2.363-1.301 0-2.36-1.058-2.36-2.363zm20.094 2.363c-1.301 0-2.359-1.058-2.359-2.363 0-1.301 1.058-2.359 2.359-2.359 1.305 0 2.363 1.058 2.363 2.359 0 1.305-1.058 2.363-2.363 2.363z" mask="url(#meyaisbekb)"/>
                </g>
            </g>
        </g>
    </g>
</svg>
