<svg xmlns="http://www.w3.org/2000/svg" width="32" height="24" viewBox="0 0 32 24">
    <g fill="none" fill-rule="evenodd">
        <g fill="#38424B" fill-rule="nonzero">
            <g>
                <path d="M31.833 8.833c0-1.233-.733-2.266-1.766-2.733.033-.133.033-.3.033-.467 0-1.666-1.367-3.033-3.033-3.033-.2 0-.434.033-.634.067-.733-1.434-2.233-2.4-3.966-2.4-1.734 0-3.234 1-3.967 2.433-.233-.067-.467-.1-.733-.1-1.667 0-3.034 1.367-3.034 3.033 0 .367.067.734.2 1.067-.833.533-1.366 1.467-1.366 2.533 0 1.434 1 2.6 2.3 2.934-.034.133-.034.3-.034.433 0 1.433 1.167 2.6 2.6 2.6.5 0 .934-.133 1.334-.367l1.966 1.367-.4 5.333h-11.2L9.8 16.7l1.9-1.333c.333.166.7.266 1.1.266.8 0 1.533-.4 1.933-1.033-.233-.4-.366-.867-.433-1.333-1.4-.834-2.333-2.334-2.333-4.034 0-1.166.433-2.266 1.2-3.133 0-.167-.034-.333-.034-.467 0-.333.034-.633.1-.933-.266-.1-.533-.133-.833-.133-.2 0-.4 0-.567.066-.666-1.3-2.033-2.166-3.566-2.166-1.567 0-2.934.9-3.6 2.2C4.467 4.6 4.233 4.6 4 4.6c-1.5 0-2.733 1.233-2.733 2.733 0 .334.066.667.166.967C.7 8.8.2 9.633.2 10.6c0 1.3.9 2.367 2.1 2.667-.033.133-.033.266-.033.4C2.267 14.967 3.3 16 4.6 16c.433 0 .833-.133 1.2-.333L7.567 16.9l-.334 4.667h-4.2c-.6 0-1.1.5-1.1 1.1 0 .6.5 1.1 1.1 1.1H29c.6 0 1.1-.5 1.1-1.1 0-.6-.5-1.1-1.1-1.1h-4.4l-.4-5.5 2.1-1.467c.367.2.767.3 1.2.3 1.433 0 2.6-1.167 2.6-2.6 0-.233-.033-.433-.1-.667 1.1-.5 1.833-1.566 1.833-2.8zm-21.4 5.2h.134c.1.3.233.534.433.767l-1.3.8-.133-1.7c.266.1.566.133.866.133zm-4.033 1c.233-.3.4-.633.467-1H6.9c.3 0 .567-.033.833-.133L7.6 15.8l-1.2-.767zm14.067-.8c.266-.333.433-.7.533-1.133h.033c.334 0 .634-.067.934-.133l-.167 2.1-1.333-.834zm3.666.6L24 12.967c.3.1.6.133.933.133h.134c.1.3.266.6.5.833l-1.434.9z" transform="translate(-78 -1700) translate(78 1700)"/>
            </g>
        </g>
    </g>
</svg>
