<svg xmlns="http://www.w3.org/2000/svg" width="24" height="26" viewBox="0 0 24 26">
    <g fill="none" fill-rule="evenodd">
        <g fill="#FFF" fill-rule="nonzero">
            <g>
                <path d="M18.999 13l.065-1.422L18 10.999l-1 .579V13h-1.001v-2.029l-1-.578-1 .579V13h-1V4.717l-1-.577-1 .578v13.657l-3.11-5.388H6.734l-.577 1 1.826 3.164.547 2.672 3.47 3.47V26h-1v-2.293l-3.39-3.39-.574-2.808L5.01 14l1.155-2h2.308l1.526 2.644L10 4.154 12 3 14 4.154v5.68l1-.58 2 1.185L18 9.86l1.999 1 1-.578 2 1.153v6.823l-2 5.334V26h-1v-2.59l2-5.333v-6.079l-1-.577-1 .578V13h-1zM3.414 1.497L2.707.79 0 3.497l2.707 2.707.707-.707-1.5-1.5H9v-1H1.914l1.5-1.5zm17.172 0l.707-.707L24 3.497l-2.707 2.707-.707-.707 1.5-1.5H15v-1h7.086l-1.5-1.5z" transform="translate(-227 -101) translate(227 101)"/>
            </g>
        </g>
    </g>
</svg>
