<svg xmlns="http://www.w3.org/2000/svg" width="39" height="23" viewBox="0 0 39 23">
    <g fill="none" fill-rule="evenodd">
        <g fill="#38424B">
            <g>
                <g>
                    <path d="M31.566 8.226c-.304 0-.604.02-.899.056l-1.853-6.304c.182-.21.291-.482.291-.78C29.105.537 28.565 0 27.9 0h-4.974c-.667 0-1.207.537-1.207 1.198 0 .662.54 1.199 1.207 1.199h3.15l-1.28 2.027c-.057-.008-.116-.012-.174-.01l-10.77.155c.266-.22.437-.552.437-.923 0-.662-.54-1.199-1.206-1.199h-2.906c-.666 0-1.206.537-1.206 1.199s.54 1.198 1.206 1.198h.217c.029.107.073.213.134.312l.484.792L9.675 8.57c-.708-.222-1.46-.343-2.241-.343C3.335 8.226 0 11.54 0 15.612 0 19.686 3.335 23 7.434 23c3.54 0 6.507-2.472 7.252-5.77l3.978.229.07.002c.413 0 .799-.211 1.02-.561l7.464-11.805 1.134 3.858c-2.494 1.193-4.22 3.73-4.22 6.66 0 4.073 3.335 7.387 7.434 7.387 4.1 0 7.434-3.314 7.434-7.388 0-4.072-3.335-7.386-7.434-7.386zm-19.08.134l4.02 6.574-1.68-.097c-.223-2.122-1.356-3.98-3.002-5.18l.661-1.297zM2.411 15.612c0-2.751 2.253-4.99 5.022-4.99.387 0 .765.046 1.128.13l-2.204 4.32c-.184.36-.173.788.03 1.138.203.35.57.576.976.6l4.867.279c-.635 2.033-2.545 3.514-4.797 3.514-2.77 0-5.022-2.239-5.022-4.99zm6.93-1.09l1.37-2.685c.845.725 1.444 1.725 1.657 2.859l-3.027-.174zm9.406-.536L14.45 6.957l8.82-.127-4.523 7.156zm12.818 6.617c-2.769 0-5.022-2.239-5.022-4.99 0-1.838 1.006-3.446 2.498-4.312l1.366 4.648c.188.635.858 1 1.496.814.64-.185 1.007-.851.82-1.486l-1.367-4.65c.07-.002.139-.004.21-.004 2.768 0 5.02 2.238 5.02 4.99 0 2.751-2.252 4.99-5.02 4.99z" transform="translate(-361 -5000) translate(0 4539) translate(361 461)"/>
                </g>
            </g>
        </g>
    </g>
</svg>
