<?xml version="1.0" encoding="utf-8"?>
<!-- Generator: Adobe Illustrator 18.0.0, SVG Export Plug-In . SVG Version: 6.00 Build 0)  -->
<!DOCTYPE svg PUBLIC "-//W3C//DTD SVG 1.1//EN" "http://www.w3.org/Graphics/SVG/1.1/DTD/svg11.dtd">
<svg version="1.1" id="Layer_1" xmlns="http://www.w3.org/2000/svg" xmlns:xlink="http://www.w3.org/1999/xlink" x="0px" y="0px"
	 width="13.6px" height="8.9px" viewBox="0 0 13.6 8.9" enable-background="new 0 0 13.6 8.9" xml:space="preserve">
<path fill="#38424B" d="M13,0.1c-0.1,0-0.4,0.2-0.4,0.3C12.5,0.5,12,1,11.2,1.7c-0.7,0.7-1.7,1.6-2.7,2.5L5.9,6.6
	C5.3,7.1,5,7.5,4.8,7.7L0.9,4.3C0.6,4.1,0.4,4,0.1,4.2C-0.1,4.5,0,4.8,0.2,5.1l4.2,3.6c0.2,0.2,0.6,0.2,0.8,0
	c0.1-0.1,0.6-0.6,1.4-1.3l2.7-2.5L12,2.4c0.7-0.7,1.3-1.2,1.4-1.3c0.2-0.2,0.3-0.7,0.1-0.9C13.2-0.1,13.2,0.1,13,0.1z"/>
</svg>
