<svg xmlns="http://www.w3.org/2000/svg" width="20" height="28" viewBox="0 0 20 28">
    <g fill="none" fill-rule="evenodd">
        <g fill="#8EC051" fill-rule="nonzero">
            <g>
                <g>
                    <g>
                        <g>
                            <path d="M14.838 22.462L14.612 22.462 13.065 22.462 12.896 22.462 12.896 18.398 12.327 18.398 9.213 18.398 8.643 18.398 8.643 22.462 8.474 22.462 6.928 22.462 6.701 22.462 10.77 27.937z" transform="translate(-1161 -2563) translate(0 1800) translate(947 747) translate(214 16)"/>
                            <path d="M15.842.16c-.089-.088-.258-.16-.384-.16H1.583v9.055h1.17V1.142h11.929l.001 4.075h4.103v18.931l-3.858-.004-.838 1.137 5.374.008h.457l.009-20.821c0-.125-.072-.3-.16-.389L15.841.161zM2.526 18.364L1.811 18.364 1.582 18.364 1.583 24.834 1.583 25.289 7.42 25.281 6.583 24.145 2.753 24.148 2.753 23.979 2.753 18.364zM3.944 13.273c.077-.028.133-.07.176-.126.04-.054.061-.117.061-.194 0-.095-.029-.167-.083-.223-.061-.063-.137-.1-.234-.115-.064-.01-.22-.023-.6-.023h-.207v.729h.266c.435 0 .58-.035.621-.048z" transform="translate(-1161 -2563) translate(0 1800) translate(947 747) translate(214 16)"/>
                            <path d="M7.705 14.81c.314 0 .559-.09.726-.27.182-.198.275-.5.275-.9.002-.358-.086-.628-.262-.806-.157-.157-.381-.237-.667-.237-.064 0-.115.003-.16.006v2.207h.088z" transform="translate(-1161 -2563) translate(0 1800) translate(947 747) translate(214 16)"/>
                            <path d="M.074 17.402h15.61v-7.384H.07v.457l.004 6.47v.457zm14.01-5.89v1.121h-1.911v.58h1.705v1.016h-1.705v1.679h-1.325v-4.396h3.236zm-7.564.06c.314-.055.746-.086 1.17-.086.725 0 1.225.146 1.62.471.453.366.692.937.692 1.653 0 .94-.365 1.474-.67 1.757-.416.376-1.028.567-1.819.567-.356 0-.705-.021-.986-.061l-.182-.026v-4.244l.175-.032zm-4.845-.06h1.698c.564 0 .928.023 1.113.068.296.069.548.224.749.46.2.236.3.539.3.9 0 .277-.059.519-.173.716-.115.194-.262.351-.443.463-.173.11-.355.183-.538.221-.23.042-.547.06-.965.06h-.358v1.507H1.675v-4.395z" transform="translate(-1161 -2563) translate(0 1800) translate(947 747) translate(214 16)"/>
                        </g>
                    </g>
                </g>
            </g>
        </g>
    </g>
</svg>
