<svg xmlns="http://www.w3.org/2000/svg" xmlns:xlink="http://www.w3.org/1999/xlink" width="95" height="58" viewBox="0 0 95 58">
    <defs>
        <path id="j7vkwh0p8a" d="M0 0.999L32.08 0.999 32.08 58.999 0 58.999z"/>
        <path id="yx1ymzt4bc" d="M0 0.91L58 0.91 58 33 0 33z"/>
    </defs>
    <g fill="none" fill-rule="evenodd">
        <g>
            <g>
                <g transform="translate(-113 -255) translate(113 254) translate(0 .008)">
                    <mask id="nc4kx22b7b" fill="#fff">
                        <use xlink:href="#j7vkwh0p8a"/>
                    </mask>
                    <path fill="#FFF" d="M27.76 56.52H4.32c-1.021 0-1.85-.829-1.85-1.85V51h27.14v3.7c-.016 1.01-.84 1.82-1.85 1.82zM4.32 3.47h23.44c1.022 0 1.85.828 1.85 1.85v2.47H2.47V5.32c0-1.022.829-1.85 1.85-1.85zM2.47 48.5h27.14V10.25H2.47V48.5zM27.76 1H4.32C1.94.994.006 2.92 0 5.3V54.67c0 2.387 1.933 4.325 4.32 4.33h23.44c2.384-.005 4.315-1.937 4.32-4.32V5.32c0-2.386-1.934-4.32-4.32-4.32z" mask="url(#nc4kx22b7b)"/>
                </g>
                <path fill="#FFF" d="M16 51.898c-1.021 0-1.85.829-1.85 1.85 0 1.022.829 1.85 1.85 1.85 1.021 0 1.85-.828 1.85-1.85-.005-1.02-.83-1.844-1.85-1.85" transform="translate(-113 -255) translate(113 254)"/>
                <g transform="translate(-113 -255) translate(113 254) translate(37 26.008)">
                    <mask id="l1ljixapad" fill="#fff">
                        <use xlink:href="#yx1ymzt4bc"/>
                    </mask>
                    <path fill="#FFF" d="M55.53 28.67c0 1.02-.828 1.85-1.85 1.85h-2.47V3.38h2.47c1.022 0 1.85.829 1.85 1.85v23.44zm-53.05 0V5.23c0-1.021.828-1.85 1.85-1.85H8v27.14H4.3c-1.01-.016-1.82-.84-1.82-1.85zm8.02 1.85h38.25V3.38H10.5v27.14zM53.68.91H4.33C1.942.91.005 2.842 0 5.23v23.44c.005 2.39 1.941 4.324 4.33 4.33h49.35c2.387-.006 4.32-1.942 4.32-4.33V5.23c.006-2.38-1.92-4.314-4.3-4.32h-.02z" mask="url(#l1ljixapad)"/>
                </g>
                <path fill="#FFF" d="M42.26 41.098c-1.027-.005-1.864.823-1.87 1.85-.005 1.027.823 1.865 1.85 1.87 1.027.006 1.865-.823 1.87-1.85v-.02c0-1.022-.828-1.85-1.85-1.85" transform="translate(-113 -255) translate(113 254)"/>
                <path fill="#8EC051" d="M38.25 3.478c5.961 0 10.795 4.83 10.8 10.79v3.5l-1.39-1.38c-.48-.48-1.259-.48-1.74 0-.481.464-.494 1.23-.029 1.711l.029.03 3.48 3.49c.484.481 1.266.481 1.75 0l3.49-3.49c.48-.482.48-1.26 0-1.74-.481-.482-1.259-.482-1.74 0l-1.38 1.38v-3.5c-.016-7.322-5.95-13.25-13.27-13.26-.681-.079-1.295.41-1.373 1.09-.077.681.412 1.295 1.092 1.373.07.008.14.01.211.006h.07z" transform="translate(-113 -255) translate(113 254)"/>
            </g>
        </g>
    </g>
</svg>
