<svg xmlns="http://www.w3.org/2000/svg" width="32" height="36" viewBox="0 0 32 36">
    <g fill="none" fill-rule="evenodd">
        <g fill="#38424B" fill-rule="nonzero">
            <g>
                <g>
                    <path d="M15.986.157c-4.299 0-7.77 3.314-7.77 7.689 0 1.004.287 2.508.622 3.392L16 26.103l7.162-14.865c.336-.884.622-2.387.622-3.392 0-4.375-3.498-7.69-7.798-7.69zM16 4.48c1.91 0 3.46 1.549 3.46 3.46 0 1.91-1.55 3.459-3.46 3.459s-3.46-1.55-3.46-3.46S14.09 4.48 16 4.48zM1.527 17.454l6.676 8.392 4.094-3.46-2.378-4.932H1.527zm20.554 0l-1.973 4.324H32v-4.324h-9.919zM0 18.292v16.46h13.095L0 18.291zm19.203 5.121l-1.649 3.433c-.283.578-.91.973-1.554.973s-1.271-.395-1.554-.973l-1.378-2.865-3.798 3.203 6.027 7.567H28.23l-9.027-11.338zm2.27.095l3.446 4.324H32v-4.324H21.473zm4.824 6.054l4.135 5.19H32v-5.19h-5.703z" transform="translate(-78 -1454) translate(78 1454) translate(0 .276)"/>
                </g>
            </g>
        </g>
    </g>
</svg>
