<svg xmlns="http://www.w3.org/2000/svg" width="32" height="28" viewBox="0 0 32 28">
    <g fill="none" fill-rule="evenodd">
        <g fill="#38424B" fill-rule="nonzero">
            <g>
                <path d="M29.64 26.32h-1.972V16.291c-1.565-.005-2.965-.733-3.879-1.868-.917 1.139-2.322 1.869-3.894 1.869-1.573 0-2.978-.73-3.895-1.869-.917 1.139-2.322 1.869-3.895 1.869-1.572 0-2.977-.73-3.894-1.869-.917 1.139-2.322 1.869-3.895 1.869V26.32H2.362c-.305 0-.552.247-.552.552 0 .304.247.551.552.551h27.277c.305 0 .551-.247.551-.551 0-.305-.246-.552-.55-.552zm-9.76 0h-7.758v-8.703h7.758v8.703zM27.115.162H4.868L.423 11.294c0 2.144 1.75 3.894 3.894 3.894 2.145 0 3.895-1.75 3.895-3.894 0 2.144 1.735 3.894 3.894 3.894 2.145 0 3.895-1.75 3.895-3.894 0 2.144 1.735 3.894 3.895 3.894 2.144 0 3.894-1.75 3.894-3.894 0 2.144 1.736 3.894 3.895 3.894 2.145 0 3.895-1.75 3.895-3.894L27.116.162z" transform="translate(-78 -2382) translate(78 2382)"/>
            </g>
        </g>
    </g>
</svg>
