<svg xmlns="http://www.w3.org/2000/svg" width="19" height="23" viewBox="0 0 19 23">
    <g fill="none" fill-rule="evenodd">
        <g fill="#38424B">
            <g>
                <g>
                    <path d="M9.496 0C4.273 0 0 .602 0 4.84v11.505c0 2.298 1.901 4.238 4.157 4.238l-1.78 1.815V23h14.245v-.602l-1.78-1.815c2.257 0 4.158-1.94 4.158-4.238V4.84C19 .602 14.727 0 9.496 0zM4.157 18.16c-.951 0-1.78-.847-1.78-1.815 0-.97.829-1.815 1.78-1.815.95 0 1.78.845 1.78 1.815 0 .968-.83 1.814-1.78 1.814zm-1.78-7.266h5.938V4.84H2.378v6.053zm12.466 7.265c-.952 0-1.78-.846-1.78-1.814 0-.97.828-1.815 1.78-1.815.951 0 1.78.845 1.78 1.815 0 .968-.829 1.814-1.78 1.814zm-4.158-7.265h5.937V4.84h-5.937v6.053z" transform="translate(-614 -5000) translate(0 4539) translate(614 461)"/>
                </g>
            </g>
        </g>
    </g>
</svg>
