<svg xmlns="http://www.w3.org/2000/svg" xmlns:xlink="http://www.w3.org/1999/xlink" width="82" height="105" viewBox="0 0 82 105">
    <defs>
        <path id="3etzpvvwpa" d="M0.153 0.197L7.976 0.197 7.976 11.489 0.153 11.489z"/>
        <path id="6jiya6vffc" d="M0.179 0.197L8.001 0.197 8.001 11.489 0.179 11.489z"/>
        <path id="4s6oco2cfe" d="M0.119 0.197L7.942 0.197 7.942 11.489 0.119 11.489z"/>
        <path id="azqgrsw31g" d="M0.271 0.197L8.093 0.197 8.093 11.489 0.271 11.489z"/>
    </defs>
    <g fill="none" fill-rule="evenodd">
        <g>
            <g>
                <path fill="#8EC051" d="M0 82.623L77.377 82.623 77.377 0 0 0z" transform="translate(-48 -40) translate(48 40)"/>
                <g>
                    <path fill="#00574A" d="M4.23 88.245c1.66 0 2.817-.824 2.817-2.823 0-1.998-1.157-2.798-2.817-2.798H2.016v5.621H4.23zm-.503-7.12c1.61 0 2.742-.45 2.742-2.398 0-1.948-1.132-2.473-2.742-2.473h-1.71v4.872h1.71zm-3.622-6.37h3.748c2.666 0 4.427 1.125 4.427 3.897 0 1.375-.68 2.548-1.61 3.048 1.383.575 2.238 1.924 2.238 3.747 0 2.824-1.685 4.297-4.502 4.297H.105V74.755z" transform="translate(-48 -40) translate(48 40) translate(0 14.426)"/>
                    <g transform="translate(-48 -40) translate(48 40) translate(0 14.426) translate(10.604 78.505)">
                        <mask id="8yi0nqgpcb" fill="#fff">
                            <use xlink:href="#3etzpvvwpa"/>
                        </mask>
                        <path fill="#00574A" d="M4.354 1.546c-1.208 0-1.962 1.074-2.264 2.948h4.075c.1-1.849-.402-2.948-1.811-2.948m.176 9.943c-2.616 0-4.377-1.924-4.377-5.696C.153 2.321 1.964.197 4.33.197c2.289 0 3.547 1.649 3.547 4.422 0 .35-.051.849-.127 1.149H2.015c-.076 2.223.603 4.271 3.119 4.271.855 0 1.61-.4 2.238-.974l.604 1.025c-.805.8-1.811 1.399-3.446 1.399" mask="url(#8yi0nqgpcb)"/>
                    </g>
                    <path fill="#00574A" d="M22.528 89.92c-1.031 0-1.685-.5-1.685-1.775v-13.39l1.886-.3v13.816c0 .449.151.649.478.649.201 0 .352-.05.504-.125v.75c-.202.174-.68.374-1.183.374M27.426 89.92c-1.032 0-1.686-.5-1.686-1.775v-13.39l1.887-.3v13.816c0 .449.15.649.478.649.201 0 .352-.05.503-.125v.75c-.201.174-.68.374-1.182.374" transform="translate(-48 -40) translate(48 40) translate(0 14.426)"/>
                    <g transform="translate(-48 -40) translate(48 40) translate(0 14.426) translate(29.883 78.505)">
                        <mask id="d70t7pd67d" fill="#fff">
                            <use xlink:href="#6jiya6vffc"/>
                        </mask>
                        <path fill="#00574A" d="M4.38 1.546c-1.208 0-1.962 1.074-2.264 2.948h4.075c.1-1.849-.403-2.948-1.812-2.948m.177 9.943C1.94 11.489.179 9.565.179 5.793.179 2.321 1.99.197 4.354.197c2.29 0 3.547 1.649 3.547 4.422 0 .35-.05.849-.126 1.149H2.04c-.075 2.223.604 4.271 3.12 4.271.855 0 1.609-.4 2.238-.974l.603 1.025c-.804.8-1.81 1.399-3.445 1.399" mask="url(#d70t7pd67d)"/>
                    </g>
                    <path fill="#00574A" d="M41.36 76.329L37.31 76.329 37.31 74.755 47.347 74.755 47.347 76.329 43.297 76.329 43.297 89.744 41.36 89.744z" transform="translate(-48 -40) translate(48 40) translate(0 14.426)"/>
                    <g transform="translate(-48 -40) translate(48 40) translate(0 14.426) translate(46.752 78.505)">
                        <mask id="zuxz3yb1if" fill="#fff">
                            <use xlink:href="#4s6oco2cfe"/>
                        </mask>
                        <path fill="#00574A" d="M4.32 1.546c-1.208 0-1.962 1.074-2.264 2.948h4.075c.1-1.849-.402-2.948-1.811-2.948m.176 9.943C1.88 11.489.119 9.565.119 5.793.12 2.321 1.931.197 4.295.197c2.289 0 3.547 1.649 3.547 4.422 0 .35-.051.849-.126 1.149H1.98c-.075 2.223.604 4.271 3.12 4.271.855 0 1.61-.4 2.238-.974l.604 1.025c-.805.8-1.81 1.399-3.446 1.399" mask="url(#zuxz3yb1if)"/>
                    </g>
                    <path fill="#00574A" d="M58.886 82.55v7.194H57V79.052l1.685-.275.101 1.774c.528-1.024 1.736-1.849 3.22-1.849v1.949c-1.636-.375-2.918.525-3.12 1.899M65.758 82.55v7.194h-1.886V79.052l1.685-.275.1 1.774c.53-1.024 1.737-1.849 3.22-1.849v1.949c-1.635-.375-2.918.525-3.119 1.899" transform="translate(-48 -40) translate(48 40) translate(0 14.426)"/>
                    <g transform="translate(-48 -40) translate(48 40) translate(0 14.426) translate(69.887 78.505)">
                        <mask id="ctwvkoofph" fill="#fff">
                            <use xlink:href="#azqgrsw31g"/>
                        </mask>
                        <path fill="#00574A" d="M4.471 1.546c-1.207 0-1.961 1.074-2.263 2.948h4.075c.1-1.849-.403-2.948-1.812-2.948m.176 9.943c-2.615 0-4.376-1.924-4.376-5.696C.27 2.321 2.082.197 4.446.197c2.29 0 3.547 1.649 3.547 4.422 0 .35-.05.849-.126 1.149H2.132c-.075 2.223.604 4.271 3.12 4.271.855 0 1.609-.4 2.238-.974l.603 1.025c-.804.8-1.81 1.399-3.446 1.399" mask="url(#ctwvkoofph)"/>
                    </g>
                    <path fill="#FEFEFE" d="M25 26.317c0 5.703 1.326 10.026 3.977 12.968 2.652 2.943 6.018 4.414 10.1 4.414s7.43-1.46 10.048-4.38c2.616-2.92 3.926-7.3 3.926-13.14 0-5.77-1.275-10.076-3.822-12.916-2.55-2.839-5.932-4.26-10.152-4.26-4.22 0-7.62 1.438-10.204 4.312C26.291 16.189 25 20.523 25 26.317m-10.55.344c0-5.13.773-9.435 2.317-12.917 1.153-2.565 2.727-4.866 4.722-6.904 1.994-2.04 4.18-3.55 6.554-4.535C31.203.977 34.845.312 38.973.312c7.471 0 13.45 2.302 17.935 6.905 4.484 4.603 6.726 11.005 6.726 19.203 0 8.13-2.224 14.492-6.675 19.083-4.45 4.592-10.4 6.887-17.848 6.887-7.54 0-13.535-2.284-17.985-6.852-4.45-4.57-6.676-10.862-6.676-18.877" transform="translate(-48 -40) translate(48 40) translate(0 14.426)"/>
                </g>
                <text fill="#00574A" font-family="Arial-BoldMT, Arial" font-size="59.524" font-weight="bold" transform="translate(-48 -40) translate(48 40)">
                    <tspan x="51.148" y="72.361">2</tspan>
                </text>
                <path fill="#FEFEFE" d="M62.35 47.602c.082-.47.125-.687.198-1.106.047-.27.09-.515.14-.852.066-.437.107-.781.143-1.071.029-.232.045-.365.064-.555.029-.304.045-.558.056-.74-.182.025-.435.051-.739.058-.261.006-.452-.006-.476-.006-1.233.02-3.952.164-6.287 2.283-1.675 1.522-2.673 4.03-2.99 7.525l5.334.632c.101-1.852.482-3.178 1.142-3.977.188-.227.394-.421.618-.583.24-.173 1.037-.743 2.05-.614.23.029.414.087.538.133.02-.081.048-.207.078-.363.022-.112.032-.18.06-.345.008-.057.029-.178.07-.419" transform="translate(-48 -40) translate(48 40)"/>
            </g>
        </g>
    </g>
</svg>
